<?xml version="1.0" encoding="utf-8"?>
<!-- Generator: Adobe Illustrator 26.0.1, SVG Export Plug-In . SVG Version: 6.00 Build 0)  -->
<svg version="1.1" id="Layer_1" xmlns="http://www.w3.org/2000/svg" xmlns:xlink="http://www.w3.org/1999/xlink" x="0px" y="0px"
	 viewBox="0 0 299 84" style="enable-background:new 0 0 299 84;" xml:space="preserve">
<style type="text/css">
	.st0{fill:#FFFFFF;}
	.st1{fill:none;stroke:#4D4D4D;stroke-width:4.562;stroke-linecap:round;}
</style>
<path class="st0" d="M15.6,4.7c0,0,2,11.6,1.7,18.5c0,0,15.7,2.6,15.7,2.4c0.3-7.9-0.7-14.8-0.7-14.8S24.8,8.8,15.6,4.7z"/>
<path class="st0" d="M36.7,12.3c0,0,1.2,7.6,1,13.6c0,0,12.2,1.5,15.7,1.9c0,0-0.1-6.4,0.6-11.3C54,16.5,46.5,15.1,36.7,12.3z"/>
<path class="st0" d="M58.5,17.2c0,0-0.6,5.7-0.4,11.2c0,0,6.2,0.6,15.2,1.3c0,0-0.7-6-0.2-12.2C73,17.5,67.5,18.4,58.5,17.2z"/>
<path class="st0" d="M17.2,29.1c0,0-0.2,9.2-1.5,16.7c0,0,11.8-0.7,17.4-1.1c0,0,0-6.8,0.1-13.9C33.1,30.7,27.6,30.5,17.2,29.1z"/>
<path class="st0" d="M38,31.2c0,0,0,6.3,0.1,13.2c0,0,10.7-0.3,15.7-0.1c0,0-0.9-5.5-0.5-12.1C53.3,32.2,45.1,31.8,38,31.2z"/>
<path class="st0" d="M58,32.5c0,0-0.5,5.9,0.4,11.8c0,0,5.7,0,17.3,0.7c0,0-1.3-4.9-1.8-11.4C74,33.5,70.4,33.3,58,32.5z"/>
<path class="st0" d="M14.8,52.7c0,0-0.5,11.4-8.6,25.4c0,0,13-8.3,25.7-11.5c0,0,1.2-8.9,1.2-16.8C33.1,49.6,25.9,50.3,14.8,52.7z"
	/>
<path class="st0" d="M38.2,49c0,0,0.1,5.2-0.6,16.1c0,0,12.3-2.4,18.5-3.1c0,0-1.4-6.8-2.2-13.7C53.9,48.4,47.9,48.2,38.2,49z"/>
<path class="st0" d="M58.8,47.9c0,0,0.6,5.9,2.6,13.3c0,0,8.9-0.1,20.6,0.7c0,0-4.7-8.7-5.4-13.5C76.6,48.4,70.1,48,58.8,47.9z"/>
<g>
	<path class="st0" d="M102.9,53.2c0,0.2,0.1,0.2,0.1,0.6c0,1.1-5.2,3-8.3,3c-6.1,0-9.8-3.3-9.8-11.5c0-12.2,5.4-23.7,16.7-23.7
		c3.8,0,7.4,2.2,7.4,3.4c0,0.2-0.1,0.3-0.2,0.5l-2.3,3.4c-0.2,0.2-0.3,0.3-0.5,0.3c-1.1,0-2.3-2.3-4.8-2.3c-6.4,0-9.7,10.4-9.7,18.4
		c0,4.8,1.4,6.2,4.5,6.2c2.8,0,4.6-1.8,5.4-1.8c0.1,0,0.2,0,0.3,0.3L102.9,53.2z"/>
	<path class="st0" d="M112.7,55.4c-0.1,0.5-0.2,0.6-0.7,0.6h-4.6c-0.4,0-0.6-0.1-0.6-0.5c0-0.1,0-0.3,0-0.5l3.3-14.7
		c0.2-1.2,0.6-2.4,0.6-4c0-1.5-0.4-2.2-0.4-3c0-0.3,0.3-0.4,0.6-0.5l3.9-1.5c0.1,0,0.2-0.1,0.5-0.1c0.5,0,1,2.2,1,4.9
		c1.3-1.5,3.8-4.9,7.6-4.9c0.7,0,1.7,0.2,1.7,0.6c0,0.1,0,0.2-0.1,0.4l-2.1,4.9c0,0.1-0.2,0.2-0.3,0.2c-0.3,0-0.9-0.3-1.7-0.3
		c-3.8,0-6,5.6-6.7,8.9L112.7,55.4z"/>
	<path class="st0" d="M142.3,31.7c0.1-0.2,0.2-0.4,0.5-0.4c0.2,0,0.4,0,0.9,0.1l3.6,0.5c0.5,0,0.7,0.1,0.7,0.3s-0.2,0.5-0.3,0.8
		L138,53c-2.5,5.2-5.4,13.2-12.5,13.2c-2.7,0-5.8-1.4-5.8-2c0-0.1,0.1-0.3,0.1-0.4l1.8-3.1c0.2-0.3,0.2-0.4,0.4-0.4
		c0.6,0,1.8,1,3.7,1c2.1,0,3.2-0.7,4.2-2.5l1.6-3h-2c-0.3,0-0.6,0-0.7-0.6l-2.6-22.3c0-0.2,0-0.5,0-0.6c0-0.2,0.2-0.4,0.7-0.5
		l3.6-0.5c0.4,0,0.8-0.1,1-0.1c0.4,0,0.4,0.2,0.5,1l0.9,11.3c0.2,3.1,0.4,8.3,0.4,8.8h0.1c0.6-1.8,1.8-5.2,3.1-8.2L142.3,31.7z"/>
	<path class="st0" d="M151.9,64.5c-0.1,0.5-0.1,0.7-0.9,0.8l-4.3,0.9c-0.2,0-0.6,0.1-0.7,0.1c-0.2,0-0.2-0.2-0.2-0.4
		c0-0.3,0.1-0.7,0.2-1l5.6-26.3c0.2-1.1,0.2-2,0.2-2.5c0-1.2-0.4-2.4-0.4-2.9c0-0.3,0.3-0.4,0.6-0.5l3.9-1.5c0.1,0,0.3-0.1,0.6-0.1
		c0.5,0,0.9,2,0.9,4.4c1.2-1.4,3.5-4.4,7.8-4.4c3.5,0,5.3,2.5,5.3,7.3c0,7.8-4,18.5-12.4,18.5c-2.4,0-3.5-0.8-4.3-1.2L151.9,64.5z
		 M154.7,51.3c0.4,0.2,1.5,1,3.1,1c5,0,6.8-7.9,6.8-13c0-2.1-0.8-3.4-2.4-3.4c-3,0-5.1,3.8-5.9,7.3L154.7,51.3z"/>
	<path class="st0" d="M188.9,54.2c0,0.1,0,0.3,0,0.4c0,0.8-4.7,2.2-7.8,2.2c-3.5,0-5.9-1.3-5.9-4.9c0-1.1,0.1-2.1,0.4-3.1l2.6-12.5
		H175c-0.4,0-0.6-0.1-0.6-0.5c0-0.2,0-0.4,0.1-0.6l0.6-2.7c0-0.4,0.3-0.6,0.7-0.6h3.4l1.3-6.1c0.1-0.4,0.3-0.5,0.6-0.5l4.5-0.6
		c0.2,0,0.4,0,0.6,0s0.3,0.2,0.3,0.4s0,0.4-0.1,0.7L185,32h6.6c0.4,0,0.7,0.2,0.7,0.5c0,0.2-0.1,0.4-0.2,0.7l-1,2.7
		c-0.2,0.4-0.2,0.5-0.7,0.5h-6.3L181.7,48c-0.2,0.8-0.3,1.6-0.3,2.4c0,1.2,0.6,1.8,1.9,1.8c2.2,0,4.1-1.1,4.4-1.1
		c0.2,0,0.3,0.1,0.4,0.3L188.9,54.2z"/>
	<path class="st0" d="M200.5,56.8c-5.1,0-8.3-2.6-8.3-8.9c0-9.1,5.8-17,13.9-17c4.9,0,8,2.6,8,8.9C214.1,48.9,208.4,56.8,200.5,56.8
		z M207.9,39.4c0-2.3-0.9-3.6-3-3.6c-4.6,0-6.5,7.7-6.5,12.5c0,2.3,0.9,3.6,3,3.6C205.9,51.9,207.9,44.2,207.9,39.4z"/>
	<path class="st0" d="M222.1,55.3c-0.1,0.6-0.3,0.7-0.9,0.7h-4.8c-0.6,0-0.7-0.2-0.7-0.5c0-0.1,0-0.5,0.1-0.7l6.7-31.6
		c0.1-0.6,0.3-0.7,0.9-0.7h7.3c5.2,0,10.2,1,10.2,7.5c0,8.8-6.3,12.6-13.5,12.6h-2.5L222.1,55.3z M227.3,37.3c4.4,0,7.1-1.9,7.1-6.2
		c0-2.8-2-3.4-4.5-3.4h-2.1l-2,9.6C225.8,37.3,227.3,37.3,227.3,37.3z"/>
	<path class="st0" d="M288.7,31.7c0.1-0.2,0.2-0.4,0.5-0.4c0.2,0,0.4,0,0.9,0.1l3.6,0.5c0.5,0,0.7,0.1,0.7,0.3s-0.2,0.5-0.3,0.8
		l-9.7,20c-2.5,5.2-5.4,13.2-12.5,13.2c-2.7,0-5.8-1.4-5.8-2c0-0.1,0.1-0.3,0.1-0.4l1.8-3.1c0.2-0.3,0.2-0.4,0.4-0.4
		c0.6,0,1.8,1,3.7,1c2.1,0,3.2-0.7,4.2-2.5l1.6-3h-2c-0.3,0-0.6,0-0.7-0.6l-2.6-22.3c0-0.2,0-0.5,0-0.6c0-0.2,0.2-0.4,0.7-0.5
		l3.6-0.5c0.4,0,0.8-0.1,1-0.1c0.4,0,0.4,0.2,0.5,1l0.9,11.3c0.2,3.1,0.4,8.3,0.4,8.8h0.1c0.6-1.8,1.8-5.2,3.1-8.2L288.7,31.7z"/>
</g>
<g>
	<path class="st1" d="M243.2,42.4l24.7-2.1"/>
	<path class="st1" d="M243.2,49.5l24.7-2.1"/>
	<path class="st1" d="M243.2,56.3l24.7-2.1"/>
	<path class="st1" d="M246.9,39.5c0,0-2.1-12.1,7.6-13.6c9.5-1.5,8.8,10.1,9.1,13.9"/>
</g>
<g>
	<path class="st0" d="M157.5,61.3h1.2v5.4h-1.2V61.3z"/>
	<path class="st0" d="M159.7,62.8h1v0.5l0,0c0.3-0.4,0.7-0.7,1.2-0.7c1.1,0,1.4,0.6,1.4,1.6v2.4h-1.1v-2.2c0-0.6-0.2-1-0.7-1
		c-0.6,0-0.8,0.3-0.8,1.1v2.1h-1.1v-3.8H159.7z"/>
	<path class="st0" d="M164.2,62.8h1v0.5l0,0c0.3-0.4,0.7-0.7,1.2-0.7c1.1,0,1.4,0.6,1.4,1.6v2.4h-1.1v-2.2c0-0.6-0.2-1-0.7-1
		c-0.6,0-0.8,0.3-0.8,1.1v2.1h-1.1v-3.8H164.2z"/>
	<path class="st0" d="M170.6,62.7c1.2,0,2,0.8,2,2.1c0,1.2-0.8,2.1-2,2.1s-2-0.8-2-2.1C168.5,63.5,169.3,62.7,170.6,62.7z
		 M170.6,66.1c0.7,0,1-0.6,1-1.3c0-0.6-0.2-1.3-1-1.3c-0.7,0-1,0.6-1,1.3C169.6,65.4,169.8,66.1,170.6,66.1z"/>
	<path class="st0" d="M175.5,66.8h-1.2l-1.3-3.9h1.1l0.8,2.7l0,0l0.8-2.7h1.1L175.5,66.8z"/>
	<path class="st0" d="M177.2,64c0.1-1,1-1.3,1.8-1.3s1.7,0.2,1.7,1.1v2c0,0.4,0,0.7,0.1,0.9h-1.1c0-0.1-0.1-0.3-0.1-0.4
		c-0.3,0.4-0.8,0.5-1.3,0.5c-0.7,0-1.3-0.4-1.3-1.2c0-0.9,0.7-1.1,1.3-1.2c0.7-0.1,1.3-0.1,1.3-0.5c0-0.5-0.3-0.5-0.7-0.5
		s-0.7,0.2-0.7,0.6H177.2z M179.7,64.8c-0.2,0.2-0.6,0.2-0.9,0.2c-0.3,0.1-0.6,0.2-0.6,0.6s0.3,0.5,0.7,0.5c0.8,0,0.9-0.7,0.9-0.9
		L179.7,64.8C179.8,64.8,179.7,64.8,179.7,64.8z"/>
	<path class="st0" d="M183,62.8h0.8v0.7H183v1.9c0,0.4,0.1,0.5,0.5,0.5c0.1,0,0.2,0,0.3,0v0.8c-0.2,0-0.4,0-0.6,0
		c-0.7,0-1.2-0.2-1.2-0.9v-2.3h-0.7v-0.7h0.7v-1.2h1.1L183,62.8L183,62.8z"/>
	<path class="st0" d="M185.4,62.2h-1.1v-0.9h1.1V62.2z M184.3,62.8h1.1v3.9h-1.1V62.8z"/>
	<path class="st0" d="M188.4,66.8h-1.2l-1.3-3.9h1.1l0.8,2.7l0,0l0.8-2.7h1.1L188.4,66.8z"/>
	<path class="st0" d="M191.1,65.1c0,0.7,0.4,1,1,1c0.4,0,0.8-0.3,0.9-0.5h0.9c-0.3,0.9-0.9,1.3-1.8,1.3c-1.2,0-2-0.9-2-2.1
		s0.8-2.1,2-2.1c1.3,0,2,1.1,1.9,2.3L191.1,65.1L191.1,65.1L191.1,65.1z M192.9,64.4c-0.1-0.5-0.3-0.8-0.9-0.8
		c-0.7,0-0.9,0.5-0.9,0.8H192.9z"/>
	<path class="st0" d="M196.8,61.3h2.4c1.4,0,1.9,0.9,1.9,1.7c0,0.9-0.5,1.7-1.9,1.7H198v1.9h-1.2V61.3z M198,63.9h0.9
		c0.6,0,1-0.1,1-0.8s-0.5-0.8-1-0.8H198V63.9z"/>
	<path class="st0" d="M201.7,64c0.1-1,1-1.3,1.8-1.3s1.7,0.2,1.7,1.1v2c0,0.4,0,0.7,0.1,0.9h-1.1c0-0.1-0.1-0.3-0.1-0.4
		c-0.3,0.4-0.8,0.5-1.3,0.5c-0.7,0-1.3-0.4-1.3-1.2c0-0.9,0.7-1.1,1.3-1.2c0.7-0.1,1.3-0.1,1.3-0.5c0-0.5-0.3-0.5-0.7-0.5
		s-0.7,0.2-0.7,0.6H201.7z M204.2,64.8c-0.2,0.2-0.6,0.2-0.9,0.2c-0.3,0.1-0.6,0.2-0.6,0.6s0.3,0.5,0.7,0.5c0.8,0,0.9-0.7,0.9-0.9
		L204.2,64.8C204.3,64.8,204.2,64.8,204.2,64.8z"/>
	<path class="st0" d="M208.1,67.3c-0.2,0.6-0.6,0.9-1.4,0.9c-0.2,0-0.4,0-0.7,0v-0.9c0.2,0,0.4,0,0.6,0c0.4,0,0.5-0.4,0.4-0.7
		l-1.4-3.7h1.2l0.9,2.7l0,0l0.9-2.7h1.1L208.1,67.3z"/>
	<path class="st0" d="M210.1,62.8h1v0.5l0,0c0.3-0.4,0.7-0.6,1.2-0.6s0.9,0.2,1.1,0.7c0.2-0.3,0.6-0.7,1.2-0.7
		c0.8,0,1.4,0.4,1.4,1.4v2.6h-1v-2.2c0-0.5,0-1-0.7-1c-0.6,0-0.7,0.5-0.7,1v2.2h-1.1v-2.2c0-0.5,0-1-0.7-1c-0.2,0-0.7,0.1-0.7,0.9
		v2.3H210v-3.9C210,62.8,210.1,62.8,210.1,62.8z"/>
	<path class="st0" d="M217.8,65.1c0,0.7,0.4,1,1,1c0.4,0,0.8-0.3,0.9-0.5h1c-0.3,0.9-1,1.3-1.8,1.3c-1.2,0-2-0.9-2-2.1
		s0.8-2.1,2-2.1c1.3,0,2,1.1,1.9,2.3L217.8,65.1L217.8,65.1L217.8,65.1z M219.6,64.4c-0.1-0.5-0.3-0.8-0.9-0.8
		c-0.7,0-0.9,0.5-0.9,0.8H219.6z"/>
	<path class="st0" d="M221.3,62.8h1v0.5l0,0c0.3-0.4,0.7-0.7,1.2-0.7c1.1,0,1.4,0.6,1.4,1.6v2.4h-1.1v-2.2c0-0.6-0.2-1-0.7-1
		c-0.6,0-0.8,0.3-0.8,1.1v2.1h-1.1v-3.8H221.3z"/>
	<path class="st0" d="M227.2,62.8h0.8v0.7h-0.8v1.9c0,0.4,0.1,0.5,0.5,0.5c0.1,0,0.2,0,0.3,0v0.8c-0.2,0-0.4,0-0.6,0
		c-0.7,0-1.2-0.2-1.2-0.9v-2.3h-0.7v-0.7h0.7v-1.2h1.1L227.2,62.8L227.2,62.8z"/>
	<path class="st0" d="M231.5,65c0,0.7,0.6,1,1.2,1c0.4,0,1.1-0.1,1.1-0.7s-0.8-0.7-1.6-0.9c-0.8-0.2-1.6-0.5-1.6-1.5
		c0-1.1,1-1.6,2-1.6c1.1,0,2.2,0.5,2.2,1.7h-1.2c0-0.7-0.5-0.8-1.1-0.8c-0.4,0-0.8,0.2-0.8,0.6s0.3,0.5,1.6,0.8
		c0.4,0.1,1.6,0.3,1.6,1.6c0,1-0.8,1.7-2.3,1.7c-1.2,0-2.3-0.6-2.3-1.9L231.5,65L231.5,65z"/>
	<path class="st0" d="M237.4,62.7c1.2,0,2,0.8,2,2.1c0,1.2-0.8,2.1-2,2.1s-2-0.8-2-2.1S236.2,62.7,237.4,62.7z M237.4,66.1
		c0.7,0,1-0.6,1-1.3c0-0.6-0.2-1.3-1-1.3c-0.7,0-1,0.6-1,1.3C236.5,65.4,236.7,66.1,237.4,66.1z"/>
	<path class="st0" d="M240.2,61.3h1.1v5.4h-1.1V61.3z"/>
	<path class="st0" d="M245.8,66.8h-1v-0.5l0,0c-0.3,0.4-0.7,0.7-1.2,0.7c-1.1,0-1.4-0.6-1.4-1.6V63h1.1v2.2c0,0.6,0.2,1,0.7,1
		c0.6,0,0.8-0.3,0.8-1.1V63h1.1v3.8H245.8z"/>
	<path class="st0" d="M248,62.8h0.8v0.7H248v1.9c0,0.4,0.1,0.5,0.5,0.5c0.1,0,0.2,0,0.3,0v0.8c-0.2,0-0.4,0-0.6,0
		c-0.7,0-1.2-0.2-1.2-0.9v-2.3h-0.7v-0.7h0.7v-1.2h1.1L248,62.8L248,62.8z"/>
	<path class="st0" d="M250.4,62.2h-1.1v-0.9h1.1V62.2z M249.4,62.8h1.1v3.9h-1.1V62.8z"/>
	<path class="st0" d="M253.2,62.7c1.2,0,2,0.8,2,2.1c0,1.2-0.8,2.1-2,2.1s-2-0.8-2-2.1S252,62.7,253.2,62.7z M253.2,66.1
		c0.7,0,1-0.6,1-1.3c0-0.6-0.2-1.3-1-1.3c-0.7,0-0.9,0.6-0.9,1.3C252.2,65.4,252.5,66.1,253.2,66.1z"/>
	<path class="st0" d="M255.9,62.8h1v0.5l0,0c0.3-0.4,0.7-0.7,1.2-0.7c1.1,0,1.4,0.6,1.4,1.6v2.4h-1.1v-2.2c0-0.6-0.2-1-0.7-1
		c-0.6,0-0.8,0.3-0.8,1.1v2.1h-1.1v-3.8H255.9z"/>
	<path class="st0" d="M261.3,65.5c0,0.5,0.4,0.7,0.8,0.7c0.3,0,0.7-0.1,0.7-0.5c0-0.3-0.4-0.4-1.2-0.6c-0.6-0.1-1.2-0.4-1.2-1
		c0-1,0.9-1.3,1.7-1.3c0.9,0,1.6,0.3,1.7,1.3h-1c0-0.4-0.3-0.5-0.7-0.5c-0.2,0-0.6,0-0.6,0.4s0.6,0.4,1.2,0.6
		c0.6,0.1,1.2,0.4,1.2,1.1c0,1-0.9,1.4-1.8,1.4s-1.8-0.3-1.8-1.4h1L261.3,65.5L261.3,65.5z"/>
</g>
</svg>
