<?xml version="1.0" encoding="utf-8"?>
<!-- Generator: Adobe Illustrator 26.0.1, SVG Export Plug-In . SVG Version: 6.00 Build 0)  -->
<svg version="1.1" id="Layer_1" xmlns="http://www.w3.org/2000/svg" xmlns:xlink="http://www.w3.org/1999/xlink" x="0px" y="0px"
	 viewBox="0 0 117 117" style="enable-background:new 0 0 117 117;" xml:space="preserve">
<style type="text/css">
	.st0{fill:#201F50;}
</style>
<path class="st0" d="M108.5,60.1l-25,16.6v-6.3H57l-14.4-3.9H22.7v-4.2H0v43.1h22.6V101l11.2-3.5l39.8,6.3L117,72.6L108.5,60.1z
	 M72.3,98.6l-38.9-6.2l-10.6,3.4V71.6h19.1l14.4,3.9h22.2V81H56.1V86h22.4l0,0l28.6-18.9l2.9,4.4L72.3,98.6z"/>
<path class="st0" d="M81,34.3L58.5,56.6L36,34.3c-4.6-4.5-4.6-12,0-16.6c4.6-4.5,12.1-4.5,16.7,0l5.8,5.8l5.8-5.8
	c4.6-4.5,12.1-4.5,16.7,0S85.6,29.7,81,34.3z"/>
</svg>
