<?xml version="1.0" encoding="UTF-8"?><svg id="Layer_2" xmlns="http://www.w3.org/2000/svg" viewBox="0 0 54.59 54.59"><defs><style>.cls-1{fill:#141c52;}</style></defs><g id="Icons"><g><path class="cls-1" d="M37.72,34.21c-4.66,2.83-7.76,3.22-10.42,3.22s-5.76-.39-10.42-3.22c-.43-.26-.98-.19-1.32,.17-.35,.36-.4,.91-.12,1.33,2.56,3.86,6.88,6.07,11.86,6.07s9.3-2.21,11.86-6.07c.28-.42,.23-.97-.12-1.33-.35-.36-.9-.43-1.32-.17Z"/><path class="cls-1" d="M27.3,0C12.22,0,0,12.22,0,27.3s12.22,27.3,27.3,27.3,27.3-12.22,27.3-27.3S42.37,0,27.3,0Zm0,47.59c-11.19,0-20.3-9.1-20.3-20.3S16.1,7,27.3,7s20.3,9.1,20.3,20.3-9.1,20.3-20.3,20.3Z"/><polygon class="cls-1" points="15.1 21.86 13.57 25.01 17.37 26.86 13.57 28.71 15.1 31.86 25.38 26.86 15.1 21.86"/><polygon class="cls-1" points="39.49 21.86 29.21 26.86 39.49 31.86 41.02 28.71 37.22 26.86 41.02 25.01 39.49 21.86"/></g></g></svg>