<?xml version="1.0" encoding="utf-8"?>
<!-- Generator: Adobe Illustrator 26.0.1, SVG Export Plug-In . SVG Version: 6.00 Build 0)  -->
<svg version="1.1" id="Layer_2_00000102516537146319332490000006893075979912536508_"
	 xmlns="http://www.w3.org/2000/svg" xmlns:xlink="http://www.w3.org/1999/xlink" x="0px" y="0px" viewBox="0 0 117 117"
	 style="enable-background:new 0 0 117 117;" xml:space="preserve">
<style type="text/css">
	.st0{fill:#141C52;}
</style>
<g id="Icons">
	<path class="st0" d="M97.4,48.7v4.5l-2.8-1.5L77.6,19l-7.1,2.2l-2.3-4.8L52.9,14l-2.8,4.8l-6-3.6L40,22.1l-1-0.6l-6.6,11.1l1.2,0.7
		l-3.7,6.3l0.8,0.5l-3.8,6.3l2.2,1.3l-9.4,5.2v-4.2L0,60.5V103l19.7-11.8v-3.9l30.7-18.2l14.3-0.2l32.7,19.5v2.8L117,103V60.5
		L97.4,48.7z M55.4,19.4l9.4,1.5l0.9,1.8l-5.9,1.8l-5.4-3.2C54.3,21.3,55.4,19.4,55.4,19.4z M45.8,21.9l1.8,1l0,0l1.3,0.8l4.6,2.7
		l0,0l2.7,1.6l-1.6,2.7l-10.4-6.2L45.8,21.9L45.8,21.9z M40.7,28.3l13.8,8.2l-1.6,2.7l-6.8-4l0,0l-2.8-1.7l-1.1-0.7L39.1,31
		C39.1,31,40.7,28.3,40.7,28.3z M37.8,35.9l1.6,1l0,0l1.8,1.1l0.6,0.3l0,0l1.8,1.1l5.4,3.2l-1.1,2.1l-11.3-6.7
		C36.6,37.9,37.8,35.9,37.8,35.9z M33.6,44.7l1.2-2l0.9,0.5l0,0l4.2,2.5l0,0l3,1.8l-1.2,2.1L39,47.9l0,0L34.1,45l0,0L33.6,44.7
		L33.6,44.7z M48.9,64.2L19.7,81.6V58.5L34,50.6l0,0l9.6,5.7l3.6-6.4l2.5,1.5l3.6-6.4l1.4,0.8l6.6-11.1l-2.5-1.5l2.5-4.1l13.8-4.3
		l1.8,3.5l-9.5,4.9l2.3,4.4l9.5-4.9l1.3,2.6L71,40.3l2.3,4.4l9.6-4.9l1.3,2.6l-9.6,4.9l2.3,4.4l9.6-4.9l1.8,3.4l-3.4,2l0,0
		L65.2,63.5l0,0L64.4,64l-7.8,0.1l0,0C56.6,64.1,48.9,64.2,48.9,64.2z M97.4,82.7L70,66.4l19.8-11.6l7.5,4V82.7z"/>
</g>
</svg>
