<?xml version="1.0" encoding="utf-8"?>
<!-- Generator: Adobe Illustrator 26.0.1, SVG Export Plug-In . SVG Version: 6.00 Build 0)  -->
<svg version="1.1" id="Layer_1" xmlns="http://www.w3.org/2000/svg" xmlns:xlink="http://www.w3.org/1999/xlink" x="0px" y="0px"
	 viewBox="0 0 117 117" style="enable-background:new 0 0 117 117;" xml:space="preserve">
<style type="text/css">
	.st0{fill:#1E204F;}
	.st1{fill:#201F4F;}
</style>
<g>
	<path class="st0" d="M0,105.2h116.1v-8.7H0V105.2z"/>
	<path class="st1" d="M71.3,72.1h-3.5c2.3-2,3.9-4.6,4.7-7.6c0.7-2.9,0.6-6-0.5-8.9c-1.1-2.8-3-5.3-5.5-7C64,46.9,61.1,46,58,46
		c-3,0-6,0.9-8.5,2.7c-2.5,1.7-4.4,4.2-5.5,7c-1.1,2.8-1.2,5.9-0.5,8.9c0.7,2.9,2.4,5.6,4.7,7.6h-3.5c-2.3,0-4.4,0.9-6,2.5
		c-1.6,1.6-2.5,3.8-2.5,6v7.7h43.6v-7.7c0-1.1-0.2-2.2-0.7-3.3c-0.4-1-1.1-2-1.9-2.8c-0.8-0.8-1.7-1.4-2.8-1.8
		C73.5,72.3,72.4,72.1,71.3,72.1L71.3,72.1z M65.9,64.4c-0.9,1.3-2.1,2.3-3.5,3c-1.4,0.7-2.9,1.1-4.5,1.1c-1.6,0-3.1-0.4-4.5-1.1
		c-1.4-0.7-2.6-1.7-3.5-3c-0.1-0.1-0.1-0.3-0.1-0.4c0-0.2,0.1-0.3,0.2-0.4c0.1-0.1,0.3-0.2,0.4-0.2c0.2,0,0.3,0,0.5,0.1
		c2.1,1.4,4.5,2.1,7,2.1c2.5,0,4.9-0.7,7-2.1c0.1-0.1,0.3-0.1,0.5-0.1c0.2,0,0.3,0.1,0.4,0.2c0.1,0.1,0.2,0.3,0.2,0.4
		C66,64.1,66,64.3,65.9,64.4L65.9,64.4z"/>
	<path class="st0" d="M116.9,11.7v33.8H93.6L79.9,56.6V45.5h-9.2V11.7H116.9z M75.7,40.4H85v5.6l6.8-5.6h20V16.8H75.7L75.7,40.4z"/>
	<path class="st0" d="M103.7,31.5c-0.6,0.2-1.2,0.3-1.8,0.2c-0.6-0.1-1.2-0.4-1.6-0.9c-0.4-0.4-0.7-1-0.8-1.6
		c-0.1-0.6,0-1.2,0.2-1.8c0.2-0.6,0.6-1.1,1.2-1.4c0.5-0.3,1.1-0.5,1.7-0.5c0.6,0,1.2,0.2,1.7,0.5c0.5,0.3,0.9,0.8,1.1,1.4
		c0.2,0.4,0.2,0.8,0.2,1.2c0,0.4-0.1,0.8-0.2,1.2c-0.2,0.4-0.4,0.7-0.7,1C104.5,31.1,104.1,31.4,103.7,31.5L103.7,31.5z"/>
	<path class="st0" d="M86.1,31.5c-0.6,0.2-1.2,0.3-1.8,0.2c-0.6-0.1-1.2-0.4-1.6-0.9c-0.4-0.4-0.7-1-0.8-1.6c-0.1-0.6,0-1.2,0.2-1.8
		c0.2-0.6,0.6-1.1,1.2-1.4c0.5-0.3,1.1-0.5,1.8-0.5c0.6,0,1.2,0.2,1.7,0.5c0.5,0.3,0.9,0.8,1.1,1.4c0.2,0.4,0.2,0.8,0.2,1.2
		c0,0.4-0.1,0.8-0.2,1.2c-0.2,0.4-0.4,0.7-0.7,1C86.8,31.1,86.5,31.4,86.1,31.5L86.1,31.5z"/>
	<path class="st0" d="M94.9,31.5c-0.6,0.2-1.2,0.3-1.8,0.2c-0.6-0.1-1.2-0.4-1.6-0.9c-0.4-0.4-0.7-1-0.8-1.6c-0.1-0.6,0-1.2,0.2-1.8
		c0.2-0.6,0.6-1.1,1.2-1.4c0.5-0.3,1.1-0.5,1.7-0.5c0.6,0,1.2,0.2,1.7,0.5c0.5,0.3,0.9,0.8,1.1,1.4c0.2,0.4,0.2,0.8,0.2,1.2
		c0,0.4-0.1,0.8-0.2,1.2c-0.2,0.4-0.4,0.7-0.7,1C95.7,31.1,95.3,31.4,94.9,31.5L94.9,31.5z"/>
	<path class="st0" d="M98.3,42.7V84H17.7V33.3h55.8v-8.7H9v68.1h98v-50H98.3z M56.3,28.3c0.1-0.3,0.4-0.6,0.7-0.9
		c0.3-0.2,1-0.3,1-0.3c0.4,0,0.7,0.1,1.1,0.3c0.3,0.2,0.6,0.5,0.7,0.8c0.1,0.3,0.2,0.7,0.1,1.1c-0.1,0.4-0.2,0.7-0.5,1
		c-0.3,0.3-0.6,0.5-1,0.5c-0.4,0.1-0.7,0-1.1-0.1c-0.5-0.2-0.8-0.5-1-1C56.1,29.3,56.1,28.8,56.3,28.3z"/>
</g>
</svg>
